<?xml version="1.0" standalone="no"?>
<!DOCTYPE svg PUBLIC "-//W3C//DTD SVG 20010904//EN"
 "http://www.w3.org/TR/2001/REC-SVG-20010904/DTD/svg10.dtd">
<svg version="1.0" xmlns="http://www.w3.org/2000/svg"
 width="300.000000pt" height="450.000000pt" viewBox="0 0 300.000000 450.000000"
 preserveAspectRatio="xMidYMid meet">
<metadata>
Created by potrace 1.10, written by Peter Selinger 2001-2011
</metadata>
<g transform="translate(0.000000,450.000000) scale(0.100000,-0.100000)"
fill="#000000" stroke="none">
<path d="M1232 3863 c-18 -8 -46 -32 -62 -53 -28 -35 -33 -37 -99 -43 -84 -7
-119 -24 -161 -77 l-32 -40 -131 2 c-123 3 -134 1 -163 -19 -17 -12 -40 -35
-50 -50 -18 -27 -19 -64 -19 -940 0 -905 0 -912 21 -939 11 -15 33 -37 48 -48
27 -20 39 -21 394 -21 202 0 383 3 403 8 l36 7 6 -41 c8 -58 50 -117 100 -140
39 -17 72 -19 491 -19 432 0 451 1 492 20 24 12 54 39 70 62 l29 41 3 404 c3
399 3 405 -19 450 -24 49 -95 103 -136 103 -12 0 -28 7 -35 16 -50 63 -77 84
-109 84 -37 0 -67 -20 -94 -62 -14 -23 -25 -28 -56 -28 -22 0 -39 4 -39 9 0 5
-15 26 -34 45 -49 52 -86 50 -143 -9 -35 -37 -49 -45 -78 -45 -28 0 -37 5 -50
29 -40 79 -122 81 -174 5 -13 -18 -32 -34 -43 -34 -28 0 -89 -28 -117 -53 -17
-16 -25 -19 -28 -9 -3 7 -15 25 -28 40 -22 25 -30 27 -119 30 -91 4 -96 3
-121 -22 -32 -32 -32 -60 0 -91 20 -21 35 -25 87 -27 89 -3 129 0 142 11 8 7
10 -29 8 -137 -2 -81 -5 -148 -7 -150 -1 -2 -16 11 -33 28 -28 28 -35 30 -104
30 -65 0 -77 -3 -96 -23 -29 -31 -28 -58 4 -88 22 -21 35 -24 101 -24 70 0 76
2 97 27 12 16 25 28 29 28 4 0 7 -79 7 -176 0 -164 -1 -176 -17 -168 -10 5
-180 10 -378 12 -270 2 -361 6 -367 15 -9 14 -11 1678 -2 1701 5 13 25 16 114
16 l108 0 11 -27 c17 -39 42 -68 82 -92 33 -20 47 -21 404 -21 425 0 416 -2
475 88 l34 52 102 0 c84 0 103 -3 108 -16 3 -9 6 -201 6 -428 0 -403 1 -414
21 -440 26 -33 59 -33 90 0 l24 26 3 436 3 437 -23 45 c-17 33 -35 51 -68 68
-41 21 -56 23 -161 20 l-115 -3 -35 39 c-43 50 -100 76 -166 76 -48 0 -54 3
-84 39 -48 61 -79 71 -211 71 -83 0 -122 -5 -146 -17z m302 -53 c18 -17 37
-41 40 -55 6 -24 10 -25 77 -25 38 0 84 -6 103 -14 38 -16 76 -60 76 -89 0
-19 4 -20 135 -14 155 8 193 -1 219 -52 23 -44 24 -902 1 -921 -8 -7 -22 -10
-30 -6 -13 5 -15 62 -15 449 0 368 -2 447 -14 456 -9 7 -66 12 -155 14 l-141
2 0 -33 c0 -41 -30 -85 -68 -101 -20 -8 -133 -11 -399 -9 l-371 3 -27 25 c-14
14 -31 44 -38 67 l-11 43 -141 0 c-96 0 -145 -4 -153 -12 -9 -9 -12 -221 -12
-893 0 -484 4 -886 8 -892 6 -10 100 -13 393 -15 l384 -3 0 -25 0 -25 -397 -3
-396 -2 -26 31 -26 31 0 894 c0 969 -2 935 53 966 15 9 68 13 171 13 l150 0 8
32 c5 18 22 42 41 55 28 20 44 23 120 23 66 0 87 3 87 13 0 23 31 68 59 85 20
13 53 17 143 17 116 0 118 0 152 -30z m241 -1243 c8 -12 15 -32 15 -44 0 -22
3 -23 84 -23 76 0 84 2 79 18 -6 24 34 72 61 72 38 0 66 -28 66 -66 l0 -35 83
3 c82 3 82 3 79 29 -2 19 5 33 28 53 38 31 40 32 74 5 19 -15 26 -30 26 -54
l0 -33 61 -4 c57 -4 65 -8 100 -46 l39 -41 0 -401 c0 -433 1 -428 -55 -480
l-27 -25 -459 -3 c-503 -3 -501 -3 -544 56 -19 26 -20 45 -23 432 -2 377 -1
407 16 440 22 42 90 80 144 80 27 0 38 4 38 15 0 69 78 104 115 52z m-381 -63
c9 -3 16 -17 16 -30 0 -24 -1 -24 -99 -24 -75 0 -101 4 -111 15 -10 12 -10 18
0 30 9 11 34 15 95 15 46 0 90 -3 99 -6z m-28 -367 c18 -17 -14 -42 -57 -45
-85 -6 -138 19 -110 52 10 12 154 7 167 -7z"/>
<path d="M1257 3762 c-10 -10 -17 -32 -17 -48 0 -47 -12 -52 -113 -46 -83 4
-95 2 -119 -18 -25 -19 -28 -28 -28 -81 0 -104 -20 -99 399 -99 314 0 362 2
375 16 12 11 16 35 16 84 0 63 -2 71 -25 86 -20 13 -39 15 -104 9 -102 -9
-121 -3 -121 38 0 18 -7 43 -16 55 -14 20 -23 22 -123 22 -92 0 -110 -3 -124
-18z m211 -34 c7 -7 12 -20 12 -31 0 -10 13 -32 30 -48 29 -29 33 -30 114 -28
46 1 88 -1 95 -5 15 -9 14 -79 -1 -94 -9 -9 -99 -12 -345 -12 -318 0 -333 1
-343 19 -5 11 -10 30 -10 43 0 45 12 51 105 50 87 -1 88 -1 121 32 19 19 34
43 34 53 0 11 3 23 7 26 12 12 168 8 181 -5z"/>
<path d="M1718 2500 c-4 -25 -3 -61 1 -80 10 -51 17 -16 11 60 l-5 65 -7 -45z"/>
<path d="M2010 2470 c0 -40 4 -70 10 -70 6 0 10 30 10 70 0 40 -4 70 -10 70
-6 0 -10 -30 -10 -70z"/>
<path d="M2300 2470 c0 -40 4 -70 10 -70 6 0 10 30 10 70 0 40 -4 70 -10 70
-6 0 -10 -30 -10 -70z"/>
<path d="M1549 2411 c-26 -27 -29 -36 -29 -95 l0 -66 495 -2 495 -3 0 63 c0
35 -5 72 -11 84 -12 23 -66 48 -104 48 -22 0 -25 -4 -25 -33 0 -43 -15 -57
-60 -57 -43 0 -73 27 -68 62 3 22 1 23 -79 26 l-83 3 0 -30 c0 -39 -24 -61
-65 -61 -38 0 -69 33 -63 67 3 16 -6 18 -79 21 l-83 3 0 -26 c0 -39 -44 -79
-78 -70 -34 8 -52 31 -52 67 0 26 -3 28 -41 28 -31 0 -47 -6 -70 -29z m110
-72 l44 -50 -69 3 c-67 3 -69 4 -72 30 -4 35 14 68 36 68 9 -1 37 -23 61 -51z
m270 20 c12 -16 33 -35 47 -41 47 -21 23 -28 -101 -28 -69 0 -125 1 -125 3 0
1 19 24 43 50 35 38 48 46 78 47 28 0 40 -6 58 -31z m310 -19 l50 -50 -129 0
-129 0 47 49 c65 68 94 68 161 1z m225 13 c14 -50 -3 -63 -83 -62 -56 0 -63 2
-46 12 11 7 36 29 55 50 41 44 61 44 74 0z"/>
<path d="M1520 1895 l0 -296 25 -24 24 -25 446 0 446 0 24 25 25 24 0 296 0
295 -495 0 -495 0 0 -295z m938 243 c9 -9 12 -80 12 -260 0 -236 -1 -249 -20
-268 -20 -20 -30 -21 -446 -18 -365 3 -426 5 -434 18 -11 17 -14 523 -3 533 3
4 203 7 443 7 326 0 439 -3 448 -12z"/>
<path d="M1884 2130 c-50 -20 -71 -101 -39 -147 13 -19 13 -24 -2 -51 l-16
-29 -30 34 c-25 29 -35 33 -76 33 -49 -1 -71 -12 -89 -47 -16 -30 -15 -60 4
-92 15 -25 15 -30 0 -59 -19 -37 -20 -65 -4 -95 18 -35 40 -46 92 -47 41 0 52
5 74 29 l27 28 26 -28 c37 -39 108 -41 144 -4 14 13 25 29 25 35 0 6 15 -5 34
-24 29 -31 40 -36 78 -36 34 0 50 6 66 23 31 32 38 81 18 112 -20 30 -20 44
-1 65 15 16 18 16 45 -11 39 -39 109 -41 145 -4 29 28 34 97 10 129 -12 16
-12 21 0 40 8 11 15 39 15 62 0 35 -5 47 -31 68 -43 36 -88 35 -134 -5 l-35
-31 -35 31 c-23 20 -46 31 -65 31 -19 0 -42 -11 -65 -31 l-35 -31 -35 31 c-36
32 -70 38 -111 21z m98 -52 c2 -7 4 -29 4 -48 l-1 -35 -55 0 -55 0 -3 48 -3
47 54 0 c35 0 56 -5 59 -12z m203 -38 l0 -45 -49 -3 c-55 -4 -66 5 -66 54 0
41 6 45 65 42 l50 -3 0 -45z m206 46 c2 -3 3 -25 1 -51 l-4 -46 -55 3 -55 3
-3 40 c-1 22 -1 43 2 48 4 7 106 10 114 3z m-343 -98 c17 -17 15 -42 -5 -61
-17 -14 -19 -13 -35 8 -15 20 -15 24 -2 44 17 24 25 26 42 9z m200 0 c28 -28
-3 -83 -33 -58 -8 7 -15 20 -15 29 0 17 18 41 30 41 3 0 11 -5 18 -12z m-473
-108 l0 -45 -55 0 -55 0 -3 33 c-6 56 2 63 60 60 l53 -3 0 -45z m205 0 l0 -50
-55 0 -55 0 0 50 0 50 55 0 55 0 0 -50z m206 26 c3 -13 4 -35 2 -47 -3 -22 -8
-24 -58 -24 l-55 0 -3 33 c-5 54 2 62 57 62 45 0 51 -3 57 -24z m202 -23 l-3
-48 -51 -3 -52 -3 -4 43 c-3 24 -3 46 -1 51 2 4 29 7 59 7 l55 0 -3 -47z
m-545 -107 l-18 -23 -18 23 c-17 23 -18 25 -1 53 l18 30 18 -30 c17 -28 17
-31 1 -53z m217 30 c0 -6 -7 -22 -16 -34 l-16 -23 -19 25 c-20 25 -20 26 -2
50 16 22 19 23 36 9 9 -9 17 -21 17 -27z m-280 -86 l0 -50 -60 0 -60 0 0 43
c0 24 3 47 7 50 3 4 30 7 60 7 l53 0 0 -50z m198 3 l-3 -48 -52 -3 -53 -3 0
50 0 51 56 0 55 0 -3 -47z m207 -3 l0 -45 -55 0 -55 0 -3 33 c-6 56 2 63 60
60 l53 -3 0 -45z"/>
<path d="M1005 3251 c-16 -10 -48 -37 -70 -60 -21 -22 -44 -41 -50 -41 -6 0
-26 11 -45 25 -60 44 -120 22 -120 -44 0 -33 127 -161 160 -161 17 0 53 29
122 98 82 82 98 103 98 129 0 22 -8 38 -26 52 -32 25 -32 25 -69 2z m63 -45
c5 -22 -163 -196 -188 -196 -25 0 -134 116 -127 134 13 35 38 30 84 -16 l45
-46 71 75 c72 76 107 91 115 49z"/>
<path d="M1182 3187 c-29 -31 -28 -62 3 -93 l25 -25 381 3 381 3 19 24 c25 31
24 63 -4 89 -23 22 -27 22 -403 22 l-381 0 -21 -23z m794 -32 c4 -8 1 -22 -6
-30 -11 -13 -67 -15 -385 -15 -391 0 -405 2 -389 44 6 14 45 16 390 16 334 0
385 -2 390 -15z"/>
<path d="M1013 2933 c-17 -8 -52 -37 -78 -64 -25 -27 -50 -49 -55 -49 -5 0
-26 11 -46 25 -20 14 -43 25 -51 25 -21 0 -63 -46 -63 -70 0 -31 129 -160 160
-160 17 0 52 28 121 98 106 105 124 139 93 173 -31 34 -47 39 -81 22z m57 -38
c11 -13 7 -22 -26 -58 -112 -121 -150 -157 -165 -157 -9 0 -42 27 -73 60 -48
50 -56 63 -46 75 20 24 38 18 79 -25 l38 -40 78 80 c43 44 84 80 91 80 6 0 17
-7 24 -15z"/>
<path d="M1186 2879 c-33 -26 -33 -58 -1 -93 l24 -26 374 0 c364 0 375 1 401
21 35 28 35 70 0 98 -26 20 -37 21 -399 21 -362 0 -373 -1 -399 -21z m789 -40
c4 -12 3 -25 -2 -30 -5 -5 -169 -8 -388 -7 -350 3 -379 4 -389 21 -8 14 -8 20
4 27 9 6 170 10 392 10 374 0 377 0 383 -21z"/>
<path d="M813 2582 c-31 -2 -48 -10 -63 -29 -18 -23 -20 -40 -20 -150 0 -124
0 -125 29 -154 29 -29 30 -29 149 -29 115 0 122 1 151 26 l31 26 0 132 c0 170
-2 172 -140 177 -52 2 -114 3 -137 1z m238 -54 c3 -86 -4 -254 -12 -259 -6 -3
-67 -6 -137 -5 l-127 1 -3 138 -3 137 141 0 c105 0 140 -3 141 -12z"/>
<path d="M830 2403 l0 -83 80 3 80 2 0 82 0 82 -80 -2 -80 -2 0 -82z m115 2
c0 -27 -3 -30 -37 -33 -36 -3 -38 -2 -38 26 0 37 7 44 45 40 26 -3 30 -7 30
-33z"/>
<path d="M813 2203 c-20 -3 -42 -15 -58 -34 -24 -29 -25 -37 -25 -151 0 -119
0 -120 29 -149 29 -29 30 -29 149 -29 115 0 122 1 151 26 l31 26 0 130 0 130
-29 29 c-29 28 -32 29 -123 27 -51 0 -107 -3 -125 -5z m224 -41 c18 -12 20
-261 2 -273 -8 -5 -70 -8 -139 -7 l-125 3 0 135 0 135 105 6 c58 3 114 6 125
7 11 1 25 -2 32 -6z"/>
<path d="M830 2024 l0 -84 80 0 80 0 0 83 0 83 -80 1 -80 0 0 -83z m118 -1 c3
-32 2 -33 -37 -33 -38 0 -41 2 -41 28 0 37 8 44 45 40 26 -3 30 -7 33 -35z"/>
<path d="M374 1248 c-12 -5 -28 -21 -35 -34 -11 -22 -10 -27 19 -57 27 -28 32
-40 32 -83 0 -37 5 -56 20 -72 22 -23 59 -29 76 -12 6 6 21 6 42 -2 26 -10 36
-10 50 0 33 24 44 25 74 7 18 -10 40 -15 56 -12 15 3 46 0 69 -6 36 -9 48 -8
79 7 26 12 40 14 47 7 15 -15 43 -14 67 1 16 10 24 10 40 0 33 -21 78 -15 96
13 15 23 14 26 -15 69 l-32 45 27 40 c30 47 26 78 -13 88 -15 3 -39 1 -55 -5
-20 -7 -36 -7 -57 1 -23 8 -36 8 -53 -2 -20 -10 -29 -9 -53 3 -49 26 -83 18
-136 -30 l-25 -24 -22 30 c-18 23 -30 30 -57 30 -18 0 -37 -4 -40 -10 -4 -6
-17 -4 -35 5 -33 17 -134 19 -166 3z m166 -48 c0 -16 -7 -20 -35 -20 l-36 0 7
-59 c8 -76 0 -111 -26 -111 -18 0 -20 7 -20 85 l0 85 -30 0 c-23 0 -30 4 -30
20 0 18 7 20 85 20 78 0 85 -2 85 -20z m100 16 c0 -3 18 -50 39 -105 36 -93
38 -101 20 -101 -11 0 -24 11 -31 25 -9 20 -18 25 -49 25 -31 0 -38 -4 -43
-25 -4 -16 -13 -25 -26 -25 -11 0 -20 3 -20 7 0 4 14 51 32 105 28 86 35 98
55 98 13 0 23 -2 23 -4z m226 -17 c13 -11 13 -14 1 -27 -12 -11 -19 -12 -37
-2 -12 6 -28 9 -36 6 -20 -8 -17 -36 4 -36 34 0 82 -38 82 -65 0 -55 -61 -81
-120 -50 -52 27 -32 54 25 34 28 -11 37 -11 47 0 11 10 9 15 -6 27 -11 8 -30
14 -42 14 -23 0 -54 33 -54 58 0 7 12 24 26 39 21 21 32 24 61 20 19 -3 41
-11 49 -18z m94 -19 c0 -22 3 -40 8 -40 4 0 20 18 35 40 23 32 35 40 60 40
l31 0 -29 -32 c-16 -18 -38 -41 -49 -51 -18 -17 -18 -18 28 -64 25 -26 46 -51
46 -55 0 -4 -11 -8 -24 -8 -17 0 -36 14 -63 47 l-38 46 -5 -44 c-3 -31 -10
-45 -22 -47 -15 -3 -17 10 -20 98 -2 56 -1 104 1 106 2 2 13 4 23 4 14 0 18
-8 18 -40z"/>
<path d="M606 1144 c-12 -30 -6 -44 18 -44 23 0 24 2 13 30 -13 33 -22 38 -31
14z"/>
<path d="M1315 1229 l-36 -32 -28 27 c-34 32 -71 33 -99 3 -19 -20 -22 -35
-22 -113 0 -82 2 -93 23 -112 24 -22 61 -29 71 -13 8 12 97 7 123 -7 11 -6 23
-8 27 -5 3 3 26 6 50 5 28 -1 48 3 56 13 16 20 44 19 61 -1 9 -11 24 -15 49
-11 20 2 44 1 52 -4 11 -6 24 -2 41 11 30 24 41 25 56 6 16 -19 138 -18 166 1
26 17 50 17 65 -2 14 -17 51 -20 66 -5 7 7 23 5 49 -6 29 -12 54 -14 95 -10
30 4 63 6 73 6 16 -2 110 -1 187 0 19 0 45 6 58 12 17 9 25 9 34 0 17 -17 64
-15 83 5 12 11 15 24 10 42 -8 31 -8 51 1 107 5 36 2 44 -25 71 -34 34 -107
51 -151 35 -14 -5 -36 -5 -50 -1 -43 12 -100 10 -131 -7 -28 -14 -34 -14 -72
1 -54 21 -107 12 -148 -26 l-32 -30 -26 32 c-34 40 -72 42 -110 5 l-27 -26
-24 25 c-27 29 -47 31 -78 9 -21 -14 -25 -14 -47 0 -36 24 -70 20 -94 -10
l-21 -26 -35 31 c-20 17 -38 31 -41 31 -15 0 -62 -32 -68 -46 -5 -13 -11 -11
-41 15 -20 17 -40 31 -45 31 -5 0 -25 -14 -45 -31z m-66 -81 c14 -38 28 -68
31 -68 3 0 17 31 31 68 22 57 30 67 52 70 l27 3 0 -105 0 -106 -26 0 -27 0 6
68 5 67 -18 -40 c-11 -22 -21 -48 -24 -57 -2 -10 -14 -18 -26 -18 -12 0 -24 8
-26 18 -3 9 -14 35 -24 57 l-19 40 2 -65 c2 -61 0 -65 -20 -68 -23 -3 -23 -2
-23 103 l0 106 26 -3 c23 -3 31 -13 53 -70z m317 -23 c39 -107 40 -115 14
-115 -13 0 -22 9 -26 25 -5 21 -12 25 -45 25 -33 0 -40 -4 -45 -25 -4 -16 -13
-25 -25 -25 -24 0 -24 2 5 86 42 122 44 126 67 122 18 -2 29 -22 55 -93z m159
18 l45 -78 0 78 c0 71 2 77 20 77 20 0 21 -5 18 -102 -3 -95 -5 -103 -23 -103
-17 0 -49 38 -102 121 -9 15 -10 4 -6 -53 6 -72 6 -73 -18 -73 -24 0 -24 2
-27 105 l-2 105 25 0 c20 0 32 -14 70 -77z m265 -15 c17 -51 34 -99 37 -105 3
-8 -4 -13 -16 -13 -14 0 -25 9 -31 25 -8 20 -16 25 -45 25 -29 0 -37 -5 -45
-25 -6 -16 -17 -25 -31 -25 -12 0 -19 5 -16 13 3 6 20 54 37 105 28 81 34 92
55 92 21 0 27 -11 55 -92z m211 73 c19 -15 21 -22 12 -32 -9 -9 -19 -9 -43 1
-49 20 -80 1 -80 -49 0 -50 22 -73 64 -69 36 4 52 38 17 38 -12 0 -21 6 -21
15 0 11 11 15 40 15 l40 0 0 -53 0 -53 -61 -2 c-67 -2 -99 13 -117 54 -22 46
-15 83 22 120 40 40 89 46 127 15z m209 -1 c0 -17 -7 -20 -50 -20 -47 0 -50
-2 -50 -25 0 -24 2 -25 40 -19 36 6 40 5 40 -15 0 -18 -6 -21 -40 -21 -36 0
-40 -2 -40 -25 0 -23 4 -25 45 -25 38 0 45 -3 45 -20 0 -18 -7 -20 -65 -20
l-65 0 0 105 0 105 70 0 c63 0 70 -2 70 -20z m166 -2 c20 -21 21 -64 0 -86
-17 -20 -17 -22 0 -51 10 -17 22 -31 26 -31 4 0 8 -4 8 -10 0 -24 -50 -9 -71
23 -42 59 -61 62 -57 10 3 -32 0 -38 -17 -38 -19 0 -20 8 -23 104 l-3 104 62
-6 c34 -3 67 -11 75 -19z"/>
<path d="M1493 1130 c-11 -29 -10 -30 17 -30 27 0 28 1 17 30 -6 17 -14 30
-17 30 -3 0 -11 -13 -17 -30z"/>
<path d="M1921 1140 c-14 -42 -15 -40 15 -40 22 0 24 3 18 23 -14 47 -21 51
-33 17z"/>
<path d="M2480 1151 c0 -26 4 -31 23 -31 57 1 66 53 9 58 -30 3 -32 1 -32 -27z"/>
</g>
</svg>
