<?xml version="1.0" standalone="no"?>
<!DOCTYPE svg PUBLIC "-//W3C//DTD SVG 20010904//EN"
 "http://www.w3.org/TR/2001/REC-SVG-20010904/DTD/svg10.dtd">
<svg version="1.0" xmlns="http://www.w3.org/2000/svg"
 width="300.000000pt" height="450.000000pt" viewBox="0 0 300.000000 450.000000"
 preserveAspectRatio="xMidYMid meet">
<metadata>
Created by potrace 1.10, written by Peter Selinger 2001-2011
</metadata>
<g transform="translate(0.000000,450.000000) scale(0.100000,-0.100000)"
fill="#000000" stroke="none">
<path d="M1255 3809 c-38 -22 -64 -52 -70 -80 -7 -29 -7 -29 -87 -29 -56 0
-88 -5 -108 -16 -28 -17 -60 -62 -60 -86 0 -10 -24 -12 -117 -10 -146 5 -194
-2 -227 -33 l-26 -24 0 -981 0 -981 25 -25 24 -24 388 2 388 3 0 25 0 25 -380
5 -380 5 -3 959 c-1 528 2 964 6 968 5 5 75 10 155 11 l147 2 0 -38 c0 -22 8
-52 17 -68 34 -57 46 -59 445 -59 342 0 365 1 395 20 40 24 54 51 56 103 l2
40 145 -2 c121 -2 147 -5 158 -18 9 -13 12 -134 12 -524 0 -532 0 -529 43
-507 16 8 17 43 17 518 0 306 -4 519 -10 534 -5 14 -24 35 -42 46 -30 19 -48
20 -176 19 l-143 -2 -21 42 c-28 57 -60 71 -158 71 -74 0 -80 2 -80 20 0 11
-15 37 -34 58 l-34 37 -124 3 c-79 1 -130 -2 -143 -9z m255 -69 c11 -11 20
-31 20 -44 0 -54 5 -56 115 -56 131 0 137 -6 137 -117 0 -62 -4 -80 -18 -90
-14 -10 -98 -13 -376 -13 -423 0 -398 -7 -398 110 0 101 11 110 139 110 106 0
111 2 111 56 0 13 9 33 20 44 17 17 33 20 125 20 92 0 108 -3 125 -20z"/>
<path d="M961 3095 l-84 -85 -37 40 c-40 43 -70 46 -70 6 0 -25 87 -116 111
-116 24 0 212 195 207 216 -8 43 -42 26 -127 -61z"/>
<path d="M1174 3095 c-4 -8 -4 -22 0 -30 5 -13 56 -15 408 -13 l403 3 0 25 0
25 -403 3 c-352 2 -403 0 -408 -13z"/>
<path d="M966 2729 l-87 -91 -22 28 c-12 15 -27 34 -33 42 -14 20 -48 11 -52
-13 -3 -25 83 -125 108 -125 16 0 199 185 208 211 4 11 -16 39 -28 39 -4 0
-47 -41 -94 -91z"/>
<path d="M1171 2736 c-6 -7 -9 -21 -5 -30 6 -15 44 -16 413 -14 l406 3 0 25 0
25 -401 3 c-332 2 -403 0 -413 -12z"/>
<path d="M1660 2413 c-14 -18 -20 -37 -18 -55 4 -28 4 -28 -50 -28 -65 0 -106
-21 -127 -67 -14 -28 -15 -90 -13 -452 3 -408 4 -420 24 -448 40 -53 34 -53
532 -53 508 0 506 0 537 60 22 43 22 857 0 900 -20 39 -63 60 -125 60 -48 0
-50 1 -50 29 0 44 -35 81 -76 81 -45 0 -74 -29 -74 -75 l0 -35 -70 0 -70 0 0
35 c0 46 -29 75 -75 75 -44 0 -75 -32 -75 -77 l0 -33 -70 0 -70 0 0 35 c0 72
-86 104 -130 48z m74 -45 c8 -30 8 -112 0 -132 -3 -9 -12 -16 -20 -16 -11 0
-14 18 -14 78 0 43 3 82 7 85 12 12 21 7 27 -15z m286 -69 c0 -64 -3 -79 -15
-79 -12 0 -15 15 -15 78 0 43 3 82 6 85 17 16 24 -10 24 -84z m288 3 c2 -68 0
-82 -13 -82 -12 0 -15 15 -15 86 0 64 3 85 13 82 8 -3 13 -32 15 -86z m-664
-47 c-8 -21 15 -74 37 -85 50 -27 109 9 109 67 l0 33 70 0 70 0 0 -29 c0 -38
27 -69 67 -77 41 -8 83 30 83 76 l0 30 70 0 70 0 0 -34 c0 -40 37 -76 77 -76
34 0 73 42 73 80 0 29 1 30 49 30 70 0 81 -14 81 -106 l0 -74 -495 0 -495 0 0
74 c0 66 3 77 22 90 31 22 120 22 112 1z m856 -539 c0 -273 -2 -317 -16 -330
-14 -14 -71 -16 -475 -16 -446 0 -460 1 -479 20 -19 19 -20 33 -20 330 l0 310
495 0 495 0 0 -314z"/>
<path d="M1844 1917 c-3 -8 -4 -32 -2 -53 l3 -39 62 -3 c60 -3 63 -2 69 24 4
15 3 39 -2 53 -8 23 -15 26 -67 29 -43 2 -59 -1 -63 -11z m86 -41 c0 -16 -19
-25 -37 -18 -23 8 -14 32 12 32 15 0 25 -6 25 -14z"/>
<path d="M2061 1916 c-7 -8 -11 -32 -9 -53 l3 -38 53 -5 c29 -3 59 -2 67 3 18
10 20 78 3 95 -17 17 -103 15 -117 -2z m74 -45 c0 -8 -4 -16 -10 -18 -16 -5
-38 14 -30 26 9 16 40 9 40 -8z"/>
<path d="M2282 1921 c-9 -5 -12 -24 -10 -52 l3 -44 59 -3 c41 -2 62 1 67 10
14 21 10 65 -7 82 -17 17 -90 22 -112 7z m76 -48 c2 -8 -6 -13 -22 -13 -25 0
-33 10 -19 24 10 10 36 3 41 -11z"/>
<path d="M1627 1753 c-4 -3 -7 -28 -7 -55 l0 -48 64 0 c49 0 65 4 70 16 10 26
7 69 -6 82 -13 13 -110 17 -121 5z m83 -50 c0 -7 -11 -13 -25 -13 -15 0 -25 6
-25 15 0 10 9 14 25 13 14 -1 25 -8 25 -15z"/>
<path d="M1847 1753 c-4 -3 -7 -28 -7 -54 0 -53 8 -59 70 -59 45 0 70 21 70
56 0 50 -16 64 -74 64 -29 0 -56 -3 -59 -7z m79 -44 c3 -6 2 -15 -3 -20 -13
-13 -43 -1 -43 17 0 16 36 19 46 3z"/>
<path d="M2054 1736 c-3 -13 -4 -37 -2 -52 3 -29 4 -29 68 -29 l65 0 3 38 c5
54 -10 67 -74 67 -48 0 -54 -2 -60 -24z m84 -33 c2 -8 -6 -13 -22 -13 -25 0
-33 10 -19 24 10 10 36 3 41 -11z"/>
<path d="M2274 1746 c-3 -8 -4 -31 -2 -52 l3 -39 59 -3 c41 -2 62 1 67 10 13
19 11 72 -3 86 -17 17 -117 16 -124 -2z m86 -42 c0 -10 -7 -14 -22 -12 -32 5
-35 28 -4 28 17 0 26 -5 26 -16z"/>
<path d="M1621 1571 c-12 -22 -14 -51 -5 -75 5 -12 21 -16 70 -16 60 0 64 1
70 26 4 15 3 39 -2 53 -8 23 -15 26 -66 29 -48 3 -58 0 -67 -17z m87 -38 c6
-19 -35 -16 -42 3 -4 11 0 15 16 12 12 -2 23 -9 26 -15z"/>
<path d="M1847 1584 c-4 -4 -7 -29 -7 -56 l0 -48 65 0 c62 0 65 1 71 26 4 15
3 39 -2 53 -8 23 -15 26 -65 29 -30 2 -58 0 -62 -4z m81 -51 c2 -8 -6 -13 -22
-13 -25 0 -33 10 -19 24 10 10 36 3 41 -11z"/>
<path d="M2061 1576 c-7 -8 -11 -32 -9 -53 l3 -38 65 0 65 0 3 38 c4 52 -11
67 -68 67 -29 0 -52 -6 -59 -14z m82 -41 c1 -5 -10 -11 -25 -13 -16 -2 -28 1
-28 7 0 20 49 26 53 6z"/>
<path d="M774 2397 c-2 -7 -3 -67 -2 -133 l3 -119 135 0 135 0 0 130 0 130
-133 3 c-103 2 -134 0 -138 -11z m216 -123 l0 -74 -80 0 -80 0 0 78 0 77 80
-3 80 -4 0 -74z"/>
<path d="M1174 2375 c-15 -38 1 -45 109 -45 81 0 107 3 117 15 10 12 10 18 0
30 -10 12 -36 15 -117 15 -83 0 -105 -3 -109 -15z"/>
<path d="M781 2006 c-8 -9 -11 -55 -9 -137 l3 -124 135 0 135 0 3 125 c2 109
0 126 -15 137 -25 19 -237 18 -252 -1z m209 -128 l0 -78 -80 0 -80 0 0 78 0
77 80 0 80 0 0 -77z"/>
<path d="M1176 2005 c-12 -12 -13 -21 -6 -36 9 -17 22 -19 99 -19 69 0 92 4
102 16 9 11 10 20 2 32 -15 25 -174 30 -197 7z"/>
<path d="M350 1000 c0 -16 7 -20 30 -20 l30 0 0 -80 c0 -73 2 -80 20 -80 18 0
20 7 20 80 l0 80 30 0 c23 0 30 4 30 20 0 18 -7 20 -80 20 -73 0 -80 -2 -80
-20z"/>
<path d="M570 996 c-5 -14 -23 -58 -40 -97 -22 -53 -27 -74 -19 -80 17 -10 36
-1 42 22 4 15 14 19 46 19 23 0 41 -4 41 -9 0 -17 30 -40 44 -35 10 4 5 28
-24 102 -30 76 -42 98 -59 100 -15 2 -24 -4 -31 -22z m48 -76 c11 -29 10 -30
-20 -30 -25 0 -29 3 -23 18 4 9 10 25 12 34 7 23 19 15 31 -22z"/>
<path d="M736 1004 c-24 -23 -19 -60 10 -83 15 -12 32 -21 39 -21 22 0 40 -29
27 -42 -9 -9 -20 -8 -46 5 -29 14 -36 14 -46 2 -16 -19 -5 -33 36 -44 67 -18
118 20 100 76 -3 11 -26 29 -51 41 -25 12 -45 26 -45 31 0 15 29 21 57 10 33
-12 52 3 33 26 -17 20 -94 20 -114 -1z"/>
<path d="M900 920 c0 -92 1 -100 19 -100 16 0 20 8 23 37 4 50 20 51 47 3 18
-33 28 -40 53 -40 l30 0 -17 28 c-10 15 -29 39 -43 54 l-26 28 42 36 c47 40
52 54 20 54 -13 0 -41 -18 -65 -42 l-43 -42 0 42 c0 35 -3 42 -20 42 -19 0
-20 -7 -20 -100z"/>
<path d="M1160 920 c0 -97 1 -100 23 -100 22 0 23 3 20 73 l-3 72 25 -52 c14
-30 31 -53 40 -53 9 0 26 23 40 53 l24 52 -2 -73 c-2 -68 -1 -72 19 -72 21 0
22 4 20 100 -1 96 -2 100 -23 100 -17 0 -29 -12 -48 -50 -14 -27 -27 -50 -30
-50 -2 0 -16 23 -31 50 -21 38 -33 50 -51 50 -23 0 -23 -2 -23 -100z"/>
<path d="M1436 925 c-21 -52 -35 -99 -31 -105 9 -14 45 6 45 25 0 11 12 15 41
15 32 0 42 -4 46 -19 5 -20 39 -35 48 -21 3 5 -12 51 -32 104 -31 78 -42 96
-59 96 -17 0 -28 -17 -58 -95z m78 -12 c6 -20 4 -23 -18 -23 -30 0 -29 -2 -15
40 12 34 19 30 33 -17z"/>
<path d="M1620 920 c0 -93 1 -100 20 -100 17 0 19 8 22 66 l3 67 45 -66 c33
-49 51 -67 68 -67 21 0 22 3 22 100 0 93 -1 100 -20 100 -17 0 -19 -8 -22 -66
l-3 -67 -45 66 c-33 49 -51 67 -67 67 -22 0 -23 -3 -23 -100z"/>
<path d="M1873 937 c-49 -124 -48 -117 -23 -117 13 0 24 8 27 20 4 16 14 20
48 20 34 0 44 -4 48 -20 3 -13 14 -20 30 -20 l24 0 -40 100 c-54 132 -69 134
-114 17z m71 -24 c6 -20 4 -23 -18 -23 -30 0 -29 -2 -15 40 12 34 19 30 33
-17z"/>
<path d="M2083 1010 c-25 -10 -53 -58 -53 -92 0 -59 71 -118 126 -104 39 10
74 50 74 86 0 29 -2 30 -45 30 -39 0 -45 -3 -45 -21 0 -17 5 -20 25 -17 27 6
32 -1 13 -20 -17 -17 -73 -15 -87 2 -16 20 -17 72 -1 91 14 17 75 21 85 5 9
-15 45 -12 45 4 0 37 -82 58 -137 36z"/>
<path d="M2270 920 l0 -100 70 0 c63 0 70 2 70 20 0 17 -5 18 -50 13 -49 -6
-50 -5 -50 21 0 24 3 26 45 26 38 0 45 3 45 20 0 17 -7 20 -45 20 -38 0 -45 3
-45 20 0 17 7 20 50 20 43 0 50 3 50 20 0 18 -7 20 -70 20 l-70 0 0 -100z"/>
<path d="M2450 920 l0 -100 26 0 c25 0 26 2 20 35 -6 30 -4 35 13 35 13 0 24
-11 32 -35 11 -29 18 -35 42 -35 30 0 30 2 -4 51 -17 25 -17 26 2 42 10 9 19
29 19 45 0 44 -27 62 -93 62 l-57 0 0 -100z m105 35 c0 -15 -8 -21 -32 -23
-30 -3 -33 -1 -33 23 0 24 3 26 33 23 24 -2 32 -8 32 -23z"/>
</g>
</svg>
